# xmcd
#
# Track frame offsets:
#	150
#	17357
#	29835
#	40817
#	60818
#	81252
#	95538
#	113309
#	126532
#	146189
#	162034
#	175947
#	192346
#
# Disc length: 2720 seconds
#
# Revision: 1
# Processed by: cddbd v1.5.2PL0 Copyright (c) Steve Scherf et al.
# Submitted via: audiograbber 1.83.01
#
DISCID=a60a9e0d
DTITLE=Douwe Bob - Born In A Storm
DYEAR=2013
DGENRE=Country
TTITLE0=Judge, Jury And Executioner
TTITLE1=Blind Man's Bluff
TTITLE2=You Don't Have To Stay
TTITLE3=Eliza Jane
TTITLE4=Born In A Storm
TTITLE5=Multi Coloured Angels
TTITLE6=I Smoke And I Drink
TTITLE7=Beautiful
TTITLE8=Stone Into The River
TTITLE9=Life Weighs Heavy
TTITLE10=Give It To Me
TTITLE11=She Knows
TTITLE12=I Gave Them
EXTD=
EXTT0=
EXTT1=
EXTT2=
EXTT3=
EXTT4=
EXTT5=
EXTT6=
EXTT7=
EXTT8=
EXTT9=
EXTT10=
EXTT11=
EXTT12=
PLAYORDER=
